<svg xmlns="http://www.w3.org/2000/svg" version="1.1" xmlns:xlink="http://www.w3.org/1999/xlink" xmlns:svgjs="http://svgjs.dev/svgjs" width="2000" height="2000" viewBox="0 0 2000 2000"><g transform="matrix(1,0,0,1,-0.28443113772425477,-0.28443113772459583)"><svg viewBox="0 0 334 334" data-background-color="#ffffff" preserveAspectRatio="xMidYMid meet" height="2000" width="2000" xmlns="http://www.w3.org/2000/svg" xmlns:xlink="http://www.w3.org/1999/xlink"><g id="tight-bounds" transform="matrix(1,0,0,1,0.04749999999998522,0.04750000000001364)"><svg viewBox="0 0 333.90454557049503 333.90454557049503" height="333.90454557049503" width="333.90454557049503"><g><svg></svg></g><g><svg viewBox="0 0 333.90454557049503 333.90454557049503" height="333.90454557049503" width="333.90454557049503"><g><path d="M0 166.952c0-92.205 74.747-166.952 166.952-166.952 92.205 0 166.952 74.747 166.953 166.952 0 92.205-74.747 166.952-166.953 166.953-92.205 0-166.952-74.747-166.952-166.953zM166.952 316.63c82.665 0 149.677-67.013 149.678-149.678 0-82.665-67.013-149.677-149.678-149.677-82.665 0-149.677 67.013-149.677 149.677 0 82.665 67.013 149.677 149.677 149.678z" data-fill-palette-color="tertiary" fill="#cb1106" stroke="transparent"></path><ellipse rx="160.27418187383762" ry="160.27418187383762" cx="166.95227278524752" cy="166.95227278524752" fill="#cb1106" stroke="transparent" stroke-width="0" fill-opacity="1" data-fill-palette-color="tertiary"></ellipse></g><g transform="matrix(1,0,0,1,72.09700776777878,71.17305217166896)"><svg viewBox="0 0 189.71053003493748 191.55844122715712" height="191.55844122715712" width="189.71053003493748"><g><svg viewBox="0 0 189.71053003493748 191.55844122715712" height="191.55844122715712" width="189.71053003493748"><g><svg viewBox="0 0 189.71053003493748 191.55844122715712" height="191.55844122715712" width="189.71053003493748"><g><svg viewBox="0 0 189.71053003493748 191.55844122715712" height="191.55844122715712" width="189.71053003493748"><g id="textblocktransform"><svg viewBox="0 0 189.71053003493748 191.55844122715712" height="191.55844122715712" width="189.71053003493748" id="textblock"><g><svg viewBox="0 0 189.71053003493748 191.55844122715712" height="191.55844122715712" width="189.71053003493748"><g transform="matrix(1,0,0,1,0,0)"><svg width="189.71053003493748" viewBox="2.1624999999999996 -46.230644829138 51.77268473046498 52.280644829138" height="191.55844122715712" data-palette-color="#ffffff"><path d="M24.45-43.35L24.45-43.35Q25.75-39.3 25-34.9L25-34.9Q24.6-32.55 23.65-30.2L23.65-30.2Q23.55-29.95 22.95-28.78 22.35-27.6 21.93-26.58 21.5-25.55 21.13-24.33 20.75-23.1 20.9-22.18 21.05-21.25 21.75-20.85L21.75-20.85Q22.15-20.7 22.8-20.7L22.8-20.7Q23.6-20.7 25.33-19 27.05-17.3 27.8-15.85L27.8-15.85Q28.5-14.5 29.25-14.6 30-14.7 30.4-16.2L30.4-16.2Q30.7-17.85 31.5-18.5L31.5-18.5Q32.2-19.05 32.6-20.85L32.6-20.85Q32.95-22.35 35.45-27.75L35.45-27.75Q37.9-32.9 37.9-33.5L37.9-33.5Q37.9-34.05 39.6-37.25L39.6-37.25Q41.15-39.95 41.3-41.1L41.3-41.1Q41.3-42.05 42.25-43.8L42.25-43.8Q43.8-46.25 47.2-44.9L47.2-44.9Q47.7-44.75 47.83-44.15 47.95-43.55 47.73-42.68 47.5-41.8 47.15-40.8 46.8-39.8 46.28-38.75 45.75-37.7 45.33-36.88 44.9-36.05 44.5-35.33 44.1-34.6 44.05-34.45L44.05-34.45Q43.3-32.95 43.05-32.1L43.05-32.1Q43-31.85 42.85-31.13 42.7-30.4 42.55-30L42.55-30Q42.4-29.55 42.1-29.03 41.8-28.5 41.43-27.95 41.05-27.4 40.85-27L40.85-27Q40.2-25.75 39.18-23.2 38.15-20.65 37.6-19.6L37.6-19.6Q37.45-19.3 37.08-18.63 36.7-17.95 36.45-17.43 36.2-16.9 35.93-16.25 35.65-15.6 35.5-15 35.35-14.4 35.4-13.9L35.4-13.9Q35.45-12.8 37.9-12.95L37.9-12.95Q38.4-12.95 39-13L39-13Q42.35-13.4 45.35-15.3L45.35-15.3Q48.45-17.3 48.7-17.85L48.7-17.85Q49.1-18.5 51-18.5L51-18.5Q52.55-18.5 53.4-17.5 54.25-16.5 53.75-15.1L53.75-15.1Q53.45-14.05 51.43-12.58 49.4-11.1 46.7-9.95 44-8.8 42.05-8.6L42.05-8.6Q39.35-8.25 38.65-7.7L38.65-7.7Q37.6-7 32.85-8.2L32.85-8.2Q32.05-8.45 31.15-6.7 30.25-4.95 29.85-2.65L29.85-2.65Q29.35-0.6 28.88-0.28 28.4 0.05 28.4 1.55L28.4 1.55Q28.4 2.4 27.9 3.48 27.4 4.55 26.65 5.3 25.9 6.05 25.35 6.05L25.35 6.05Q24.55 6.05 23.6 4.7L23.6 4.7Q23.05 3.75 22.9 2.6L22.9 2.6Q22.8 1.45 23.05-1.3L23.05-1.3Q23.35-6 22.8-6.75L22.8-6.75Q22.65-7.1 21.98-7.33 21.3-7.55 20.25-7.7L20.25-7.7Q19.2-7.8 18.5-7.85L18.5-7.85Q17.75-7.85 16.5-7.9L16.5-7.9Q15.25-7.95 15.1-7.95L15.1-7.95Q13.75-8.1 13.25-7.7 12.75-7.3 11.7-5.35L11.7-5.35Q10.2-2.55 9.5-0.05L9.5-0.05Q8.45 3.3 7.4 4.67 6.35 6.05 4.75 6.05L4.75 6.05Q3 6.05 2.45 5.33 1.9 4.6 2.4 2.95L2.4 2.95Q3.9-2.35 5-4.8L5-4.8Q5.25-5.3 6.63-7.68 8-10.05 8.35-11.5L8.35-11.5Q8.65-12.7 8.65-14.85L8.65-14.85 8.65-18.65 11.25-20.7Q13.75-22.5 15.35-25.7L15.35-25.7Q17-29.3 17.9-30.9L17.9-30.9Q18.75-32.8 19.23-36.68 19.7-40.55 19.1-40.95L19.1-40.95Q18.6-41.3 16.8-37.9L16.8-37.9Q16.55-37.35 16.25-36.75L16.25-36.75Q14.9-34.05 14-32.65L14-32.65Q13.15-31.2 12.35-30.35 11.55-29.5 10.45-28.75L10.45-28.75Q9.2-28 7.5-28.18 5.8-28.35 4.9-29.4L4.9-29.4Q4.1-30.35 4.3-33.75 4.5-37.15 5.45-38.65L5.45-38.65Q6.9-40.9 9.15-42.83 11.4-44.75 13.4-45.4L13.4-45.4Q15.75-46.2 18.65-46.23 21.55-46.25 22.8-45.65L22.8-45.65Q23.9-45.1 24.45-43.35ZM8.28-34.98Q8.95-34.3 9.9-34.95 10.85-35.6 11.3-37.1L11.3-37.1Q12.2-39.3 11.1-39.2L11.1-39.2Q10.3-39.05 9.2-37.7L9.2-37.7Q7.6-35.65 8.28-34.98ZM20.95-12.85L20.95-12.85Q21.6-13.1 21.6-13.55L21.6-13.55Q21.35-14.2 19.65-14.93 17.95-15.65 17.55-15.25L17.55-15.25Q17.25-14.85 18.2-13.9L18.2-13.9Q19.25-12.7 20.95-12.85Z" opacity="1" transform="matrix(1,0,0,1,0,0)" fill="#ffffff" class="wordmark-text-0" data-fill-palette-color="quaternary" id="text-0"></path></svg></g></svg></g></svg></g></svg></g><g></g></svg></g></svg></g></svg></g></svg></g><defs></defs></svg><rect width="333.90454557049503" height="333.90454557049503" fill="none" stroke="none" visibility="hidden"></rect></g></svg></g></svg>